<svg width="213" height="80" viewBox="0 0 213 80" fill="none" xmlns="http://www.w3.org/2000/svg">
    <path
        d="M0.00194827 1.72644C0.00213875 0.957892 0.833158 0.476817 1.49973 0.859384L16.1327 9.2578C16.441 9.43474 16.8201 9.43472 17.1284 9.25773L31.7561 0.859936C32.4228 0.477204 33.254 0.958463 33.254 1.72718V8.96451C33.254 9.32267 33.0625 9.65348 32.7519 9.83178L17.126 18.8013C16.8177 18.9783 16.4387 18.9783 16.1304 18.8013L0.502377 9.83186C0.191647 9.65352 6.5563e-05 9.32257 0.00015436 8.9643L0.00194827 1.72644Z"
        fill="#47cf73" />
    <path
        d="M195.264 69.4144C191.747 77.3133 188.069 80 182.428 80H178.519V72.6905H181.679C183.62 72.6905 185.424 71.9958 187.143 68.2223L188.862 64.4443L174.034 29.6219H182.845L193.375 54.7012L204.192 29.6219H213L195.264 69.4144Z"
        fill="black" />
    <path fill-rule="evenodd" clip-rule="evenodd"
        d="M113.6 57.6471C113.118 58.1699 112.642 58.6654 112.166 59.1324C112.084 59.2121 112.003 59.2909 111.922 59.3689C108.601 62.5578 105.225 64.3528 99.5903 64.3528C99.3711 64.3528 99.1535 64.3503 98.9374 64.3454C98.727 64.3503 98.5153 64.3528 98.302 64.3528C93.0713 64.3528 88.7755 62.717 85.4831 59.3782C82.1152 56.0394 80.4666 51.9499 80.4666 47.0425C80.4666 46.977 80.4669 46.9114 80.4676 46.8457C80.4669 46.7748 80.4666 46.7037 80.4666 46.6324V46.3635C80.4666 42.5675 81.3336 39.3012 83.0438 36.5404L82.8333 36.4706C83.1285 36.1507 83.4282 35.8324 83.7331 35.5172C84.3299 34.7 85.0076 33.9311 85.7656 33.2099C87.7907 31.3225 90.1137 29.9792 92.7467 29.1681C94.3865 28.5773 96.1581 28.2353 98.0877 28.2353C98.3068 28.2353 98.5243 28.2377 98.7404 28.2426C98.9508 28.2377 99.1626 28.2353 99.376 28.2353C104.607 28.2353 108.902 29.8711 112.195 33.2099C115.563 36.5487 117.211 40.6382 117.211 45.5456C117.211 45.6111 117.211 45.6767 117.21 45.7424C117.211 45.8133 117.211 45.8844 117.211 45.9557V46.2246C117.211 50.7585 115.975 54.5367 113.541 57.6005L113.6 57.6471ZM98.2377 56.2861C101.318 56.2861 103.968 55.262 106.045 53.2856C108.193 51.3092 109.271 48.7883 109.271 45.7901C109.271 42.7896 108.193 40.2687 106.045 38.2923C103.968 36.3159 101.318 35.2941 98.2377 35.2941C95.1572 35.2941 92.6513 36.3159 90.5741 38.2923C88.5699 40.2687 87.5666 42.7896 87.5666 45.7901C87.5666 48.7883 88.5723 51.3092 90.5741 53.2856C92.6513 55.262 95.1572 56.2861 98.2377 56.2861Z"
        fill="black" />
    <path
        d="M0 29.6219H8.66686V49.6571C8.66686 54.8334 12.7295 57.3565 16.5448 57.3565C20.393 57.3565 24.425 54.7662 24.425 49.5876V29.6219H33.0919V50.1344C33.0919 54.9028 31.5163 58.5823 28.3651 61.1054C25.2116 63.6263 21.2738 64.8543 16.4717 64.8543C11.6744 64.8543 7.73423 63.6286 4.65608 61.1054C1.57558 58.5845 0 55.0418 0 50.3383V29.6219ZM66.8314 16.4706V32.7322C63.9911 30.3121 59.5729 28.8713 55.3007 28.8713C50.2136 28.8713 45.9179 30.5743 42.4087 34.0476C38.9703 37.4558 37.251 41.6798 37.251 46.7911C37.251 51.9046 38.9703 56.1286 42.4087 59.6041C45.9179 63.0124 50.216 64.7176 55.3007 64.7176C61.165 64.7176 64.8719 62.5239 66.8314 60.8052V63.967H75.4276V16.4728L66.8314 16.4706ZM64.2525 54.2911C62.1753 56.2675 59.5258 57.2916 56.4453 57.2916C53.3648 57.2916 50.8589 56.2675 48.7817 54.2911C46.7799 52.3147 45.7742 49.7938 45.7742 46.7956C45.7742 43.7951 46.7775 41.2742 48.7817 39.2978C50.8589 37.3214 53.3648 36.2996 56.4453 36.2996C59.5258 36.2996 62.1753 37.3214 64.2525 39.2978C66.4004 41.2742 67.4791 43.7951 67.4791 46.7956C67.4791 49.7938 66.4004 52.3147 64.2525 54.2911ZM160.671 28.9407C154.143 28.9407 150.749 31.5177 148.425 34.0005C147.494 32.3132 144.876 28.9407 138.757 28.9407C133.585 28.9407 130.538 31.428 129.016 33.1983V29.6264H120.495V63.9714H129.016V44.2074C129.016 39.5734 132.026 36.2346 136.034 36.2346C140.121 36.2346 142.483 39.1656 142.483 43.8668V63.9692H151.006V44.2052C151.006 39.5039 153.94 36.2324 158.166 36.2324C162.249 36.2324 164.611 39.1633 164.611 43.8623V63.967H173.208V42.7061C173.208 33.7518 168.149 28.9407 160.671 28.9407Z"
        fill="black" />
</svg>