<svg width="20" height="20" viewBox="0 0 20 20" fill="none" xmlns="http://www.w3.org/2000/svg">
    <circle cx="10" cy="10" r="10" fill="#47cf73" />
    <g clip-path="url(#clip0_2_25)">
        <path
            d="M6.00747 3.75923C6.00765 2.98343 6.8528 2.5033 7.51928 2.90036L9.48923 4.07397C9.80462 4.26186 10.1976 4.26184 10.513 4.07391L12.4813 2.90093C13.1479 2.5037 13.9932 2.98401 13.9932 3.75996V3.81071C13.9932 4.16306 13.8078 4.48942 13.5051 4.66977L10.5124 6.45296C10.197 6.64087 9.80407 6.64088 9.4887 6.45299L6.49564 4.66985C6.19284 4.48945 6.00737 4.16297 6.00746 3.81051L6.00747 3.75923Z"
            fill="white" />
        <path
            d="M6.00705 8.75574H8.09858V14C8.09858 15.3549 9.079 16.0153 9.99972 16.0153C10.9284 16.0153 11.9014 15.3373 11.9014 13.9818V8.75574H13.9929V14.1249C13.9929 15.3731 13.6127 16.3362 12.8523 16.9966C12.0912 17.6565 11.141 17.9779 9.98209 17.9779C8.82436 17.9779 7.8735 17.657 7.13069 16.9966C6.38728 16.3367 6.00705 15.4094 6.00705 14.1783V8.75574Z"
            fill="white" />
    </g>
    <defs>
        <clipPath id="clip0_2_25">
            <rect width="8" height="16" fill="white" transform="translate(6 2)" />
        </clipPath>
    </defs>
</svg>