<svg width="12" height="24" viewBox="0 0 12 24" fill="none" xmlns="http://www.w3.org/2000/svg">
    <g clip-path="url(#clip0_1_6)">
        <path
            d="M0.011397 1.7592C0.0115802 0.983406 0.856725 0.503277 1.52321 0.900336L5.48978 3.26343C5.80516 3.45132 6.19814 3.4513 6.5135 3.26337L10.4779 0.9009C11.1445 0.503677 11.9898 0.983982 11.9898 1.75994V3.00017C11.9898 3.35253 11.8044 3.67888 11.5017 3.85924L6.51265 6.83193C6.19729 7.01983 5.80433 7.01984 5.48897 6.83196L0.499288 3.85931C0.196491 3.67891 0.0110207 3.35244 0.011104 2.99997L0.011397 1.7592Z"
            fill="#47cf73" />
        <path
            d="M0.0105896 10.1336H3.14788V18C3.14788 20.0323 4.61852 21.023 5.99959 21.023C7.3926 21.023 8.85215 20.006 8.85215 17.9727V10.1336H11.9894V18.1874C11.9894 20.0596 11.4191 21.5042 10.2784 22.4949C9.13688 23.4847 7.71145 23.9668 5.97316 23.9668C4.23655 23.9668 2.81027 23.4856 1.69605 22.495C0.580942 21.5051 0.0105896 20.1141 0.0105896 18.2674V10.1336Z"
            fill="black" />
    </g>
    <defs>
        <clipPath id="clip0_1_6">
            <rect width="12" height="24" fill="white" />
        </clipPath>
    </defs>
</svg>